<?xml version="1.0" standalone="no"?><!DOCTYPE svg PUBLIC "-//W3C//DTD SVG 1.1//EN" "http://www.w3.org/Graphics/SVG/1.1/DTD/svg11.dtd"><svg class="icon" width="64px" height="64.00px" viewBox="0 0 1024 1024" version="1.1" xmlns="http://www.w3.org/2000/svg"><path d="M512 87.466667c-234.666667 0-426.666667 192-426.666667 426.666666s192 426.666667 426.666667 426.666667 426.666667-192 426.666667-426.666667c0-236.8-189.866667-426.666667-426.666667-426.666666z m384 426.666666c0 89.6-32 172.8-83.2 238.933334-17.066667-8.533333-119.466667-57.6-136.533333-66.133334-19.2-8.533333-49.066667 4.266667-74.666667 21.333334l-104.533333-100.266667c-2.133333-10.666667-2.133333-32 12.8-40.533333 8.533333-6.4 40.533333 17.066667 64 44.8 4.266667 6.4 12.8 8.533333 19.2 6.4 8.533333-2.133333 12.8-6.4 17.066666-12.8 2.133333-6.4 23.466667-68.266667-8.533333-104.533334-6.4-6.4-6.4-10.666667-6.4-12.8 4.266667-21.333333 55.466667-51.2 93.866667-72.533333 51.2-29.866667 96-55.466667 100.266666-89.6 2.133333-10.666667 4.266667-32-110.933333-108.8-8.533333-6.4-21.333333-4.266667-27.733333 4.266667l-70.4 85.333333-68.266667-44.8 76.8-44.8c8.533333-4.266667 12.8-12.8 10.666667-21.333333-2.133333-8.533333-8.533333-14.933333-17.066667-17.066667l-121.6-25.6-23.466667-12.8c25.6-4.266667 51.2-8.533333 76.8-8.533333C723.2 130.133333 896 300.8 896 514.133333zM620.8 746.666667c17.066667-10.666667 34.133333-19.2 40.533333-21.333334 14.933333 6.4 70.4 34.133333 110.933334 53.333334-25.6 27.733333-78.933333 81.066667-157.866667 98.133333 19.2-49.066667 10.666667-104.533333 6.4-130.133333z m-200.533333-145.066667c-42.666667-66.133333-72.533333-110.933333-106.666667-117.333333-10.666667-2.133333-23.466667 0-32 6.4-19.2-4.266667-57.6-93.866667-78.933333-192 14.933333-25.6 78.933333-117.333333 181.333333-138.666667L439.466667 192c4.266667-2.133333 6.4 0 8.533333 0l70.4 14.933333-59.733333 34.133334c-6.4 4.266667-10.666667 10.666667-10.666667 17.066666s4.266667 14.933333 8.533333 19.2l113.066667 74.666667c8.533333 6.4 21.333333 4.266667 27.733333-4.266667l70.4-85.333333c32 21.333333 66.133333 46.933333 74.666667 59.733333-8.533333 14.933333-51.2 40.533333-78.933333 55.466667-55.466667 32-108.8 61.866667-113.066667 102.4-2.133333 10.666667 0 29.866667 14.933333 46.933333 8.533333 6.4 10.666667 17.066667 10.666667 27.733334-25.6-21.333333-59.733333-40.533333-89.6-23.466667-36.266667 23.466667-36.266667 68.266667-29.866667 93.866667 0 4.266667 2.133333 6.4 6.4 10.666666l44.8 42.666667c-17.066667-4.266667-29.866667-8.533333-38.4-8.533333-10.666667-10.666667-34.133333-44.8-49.066666-68.266667zM128 514.133333c0-61.866667 14.933333-119.466667 40.533333-170.666666 17.066667 66.133333 51.2 170.666667 96 187.733333 14.933333 6.4 27.733333 4.266667 40.533334-4.266667 17.066667 2.133333 57.6 68.266667 78.933333 100.266667 36.266667 59.733333 55.466667 87.466667 81.066667 87.466667 10.666667 0 64 19.2 110.933333 36.266666 4.266667 12.8 21.333333 96-17.066667 147.2-14.933333 2.133333-32 2.133333-46.933333 2.133334-211.2-2.133333-384-174.933333-384-386.133334z" fill="#2c2c2c" /></svg>